<svg version="1.1" xmlns="http://www.w3.org/2000/svg" xmlns:xlink="http://www.w3.org/1999/xlink" width="116.91679" height="20.74512" viewBox="0,0,116.91679,20.74512"><g transform="translate(-178.51456,-167.63599)"><g data-paper-data="{&quot;isPaintingLayer&quot;:true}" fill-rule="nonzero" stroke-linecap="butt" stroke-linejoin="miter" stroke-miterlimit="10" stroke-dasharray="" stroke-dashoffset="0" style="mix-blend-mode: normal"><path d="M230.66003,169.34844c3.05336,-1.05609 5.96763,1.79969 5.96763,1.79969c0,0 3.15868,-2.50911 4.82458,-2.26214c3.69073,0.54715 6.64706,3.7959 5.53257,7.54785c-1.85714,6.25207 -8.23738,11.22169 -10.21429,11.14285c-2.56004,-0.10209 -8.15668,-4.03952 -10.21429,-11.14285c-1.34809,-4.65392 1.84632,-6.3046 4.1038,-7.08541z" data-paper-data="{&quot;index&quot;:null}" fill="#828282" stroke="#000000" stroke-width="1.5"/><path d="M234.2389,175.91696c0,2.28445 0.44493,3.88139 -1.21212,3.80303c-1.45077,-0.0686 -1.27879,-1.51858 -1.27879,-3.80303c0,-2.28445 -0.17474,-4.13636 1.21212,-4.13636c1.65353,0 1.27879,1.85191 1.27879,4.13636z" fill="#000000" stroke="none" stroke-width="0"/><path d="M241.63889,175.91696c0,2.28445 0.44493,3.88138 -1.21212,3.80303c-1.45077,-0.0686 -1.27879,-1.51858 -1.27879,-3.80303c0,-2.28445 -0.17474,-4.13637 1.21213,-4.13637c1.65353,0 1.27878,1.85192 1.27878,4.13637z" fill="#000000" stroke="none" stroke-width="0"/><path d="M234.04884,173.36292c0,0.61616 0.36358,1.04689 -0.99049,1.02575c-1.18551,-0.0185 -1.04497,-0.40959 -1.04497,-1.02575c0,-0.61616 -0.14279,-1.11566 0.99049,-1.11566c1.3512,0 1.04497,0.4995 1.04497,1.11566z" fill="#ffffff" stroke="none" stroke-width="0"/><path d="M241.44883,173.22959c0,0.61616 0.36358,1.04688 -0.99049,1.02575c-1.18551,-0.01851 -1.04497,-0.40959 -1.04497,-1.02575c0,-0.61616 -0.14279,-1.11566 0.9905,-1.11566c1.35119,0 1.04497,0.49949 1.04497,1.11566z" fill="#ffffff" stroke="none" stroke-width="0"/><g><path d="M254.36836,168.84844c3.05336,-1.05609 5.96763,1.79969 5.96763,1.79969c0,0 3.15868,-2.50911 4.82458,-2.26214c3.69073,0.54715 6.64706,3.7959 5.53257,7.54785c-1.85714,6.25207 -8.23738,11.65026 -10.21429,11.57142c-2.56004,-0.10209 -8.15668,-4.46809 -10.21429,-11.57142c-1.34809,-4.65392 1.84632,-6.3046 4.1038,-7.08541z" data-paper-data="{&quot;index&quot;:null}" fill="#828282" stroke="#000000" stroke-width="1.5"/><path d="M257.94723,175.41696c0,2.28445 0.44493,3.88139 -1.21212,3.80303c-1.45077,-0.0686 -1.27879,-1.51858 -1.27879,-3.80303c0,-2.28445 -0.17474,-4.13636 1.21212,-4.13636c1.65353,0 1.27879,1.85191 1.27879,4.13636z" fill="#000000" stroke="none" stroke-width="0"/><path d="M265.34722,175.41696c0,2.28445 0.44493,3.88138 -1.21212,3.80303c-1.45077,-0.0686 -1.27879,-1.51858 -1.27879,-3.80303c0,-2.28445 -0.17474,-4.13637 1.21213,-4.13637c1.65353,0 1.27878,1.85192 1.27878,4.13637z" fill="#000000" stroke="none" stroke-width="0"/><path d="M257.75717,172.86292c0,0.61616 0.36358,1.04689 -0.99049,1.02575c-1.18551,-0.0185 -1.04497,-0.40959 -1.04497,-1.02575c0,-0.61616 -0.14279,-1.11566 0.99049,-1.11566c1.3512,0 1.04497,0.4995 1.04497,1.11566z" fill="#ffffff" stroke="none" stroke-width="0"/><path d="M265.15716,172.72959c0,0.61616 0.36358,1.04688 -0.99049,1.02575c-1.18551,-0.01851 -1.04497,-0.40959 -1.04497,-1.02575c0,-0.61616 -0.14279,-1.11566 0.9905,-1.11566c1.35119,0 1.04497,0.49949 1.04497,1.11566z" fill="#ffffff" stroke="none" stroke-width="0"/></g><path d="M206.86836,168.84844c3.05336,-1.05609 5.96763,1.79969 5.96763,1.79969c0,0 3.15868,-2.50911 4.82458,-2.26214c3.69073,0.54715 6.64706,3.7959 5.53257,7.54785c-1.85714,6.25207 -8.23738,11.65026 -10.21429,11.57142c-2.56004,-0.10209 -8.15668,-4.46809 -10.21429,-11.57142c-1.34809,-4.65392 1.84632,-6.3046 4.1038,-7.08541z" data-paper-data="{&quot;index&quot;:null}" fill="#828282" stroke="#000000" stroke-width="1.5"/><path d="M210.44723,175.41696c0,2.28445 0.44493,3.88139 -1.21212,3.80303c-1.45077,-0.0686 -1.27879,-1.51858 -1.27879,-3.80303c0,-2.28445 -0.17474,-4.13636 1.21212,-4.13636c1.65353,0 1.27879,1.85191 1.27879,4.13636z" fill="#000000" stroke="none" stroke-width="0"/><path d="M217.84722,175.41696c0,2.28445 0.44493,3.88138 -1.21212,3.80303c-1.45077,-0.0686 -1.27879,-1.51858 -1.27879,-3.80303c0,-2.28445 -0.17474,-4.13637 1.21213,-4.13637c1.65353,0 1.27878,1.85192 1.27878,4.13637z" fill="#000000" stroke="none" stroke-width="0"/><path d="M210.25717,172.86292c0,0.61616 0.36358,1.04689 -0.99049,1.02575c-1.18551,-0.0185 -1.04497,-0.40959 -1.04497,-1.02575c0,-0.61616 -0.14279,-1.11566 0.99049,-1.11566c1.3512,0 1.04497,0.4995 1.04497,1.11566z" fill="#ffffff" stroke="none" stroke-width="0"/><path d="M217.65716,172.72959c0,0.61616 0.36358,1.04688 -0.99049,1.02575c-1.18551,-0.01851 -1.04497,-0.40959 -1.04497,-1.02575c0,-0.61616 -0.14279,-1.11566 0.9905,-1.11566c1.35119,0 1.04497,0.49949 1.04497,1.11566z" fill="#ffffff" stroke="none" stroke-width="0"/><path d="M183.36836,168.97344c3.05336,-1.05609 5.96763,1.79969 5.96763,1.79969c0,0 3.15868,-2.50911 4.82458,-2.26214c3.69073,0.54715 6.64706,3.7959 5.53257,7.54785c-1.85714,6.25207 -8.23738,11.65026 -10.21429,11.57142c-2.56004,-0.10209 -8.15668,-4.46809 -10.21429,-11.57142c-1.34809,-4.65392 1.84632,-6.3046 4.1038,-7.08541z" data-paper-data="{&quot;index&quot;:null}" fill="#828282" stroke="#000000" stroke-width="1.5"/><path d="M186.94723,175.54196c0,2.28445 0.44493,3.88139 -1.21212,3.80303c-1.45077,-0.0686 -1.27879,-1.51858 -1.27879,-3.80303c0,-2.28445 -0.17474,-4.13636 1.21212,-4.13636c1.65353,0 1.27879,1.85191 1.27879,4.13636z" fill="#000000" stroke="none" stroke-width="0"/><path d="M194.34722,175.54196c0,2.28445 0.44493,3.88138 -1.21212,3.80303c-1.45077,-0.0686 -1.27879,-1.51858 -1.27879,-3.80303c0,-2.28445 -0.17474,-4.13637 1.21213,-4.13637c1.65353,0 1.27878,1.85192 1.27878,4.13637z" fill="#000000" stroke="none" stroke-width="0"/><path d="M186.75717,172.98792c0,0.61616 0.36358,1.04689 -0.99049,1.02575c-1.18551,-0.0185 -1.04497,-0.40959 -1.04497,-1.02575c0,-0.61616 -0.14279,-1.11566 0.99049,-1.11566c1.3512,0 1.04497,0.4995 1.04497,1.11566z" fill="#ffffff" stroke="none" stroke-width="0"/><path d="M194.15716,172.85459c0,0.61616 0.36358,1.04688 -0.99049,1.02575c-1.18551,-0.01851 -1.04497,-0.40959 -1.04497,-1.02575c0,-0.61616 -0.14279,-1.11566 0.9905,-1.11566c1.35119,0 1.04497,0.49949 1.04497,1.11566z" fill="#ffffff" stroke="none" stroke-width="0"/><path d="M278.11836,168.84844c3.05336,-1.05609 5.96763,1.79969 5.96763,1.79969c0,0 3.15868,-2.50911 4.82458,-2.26214c3.69073,0.54715 6.64706,3.7959 5.53257,7.54785c-1.85714,6.25207 -8.23738,11.65026 -10.21429,11.57142c-2.56004,-0.10209 -8.15668,-4.46809 -10.21429,-11.57142c-1.34809,-4.65392 1.84632,-6.3046 4.1038,-7.08541z" data-paper-data="{&quot;index&quot;:null}" fill="#ff0000" stroke="#000000" stroke-width="1.5"/><path d="M281.69723,175.41696c0,2.28445 0.44493,3.88139 -1.21212,3.80303c-1.45077,-0.0686 -1.27879,-1.51858 -1.27879,-3.80303c0,-2.28445 -0.17474,-4.13636 1.21212,-4.13636c1.65353,0 1.27879,1.85191 1.27879,4.13636z" fill="#000000" stroke="none" stroke-width="0"/><path d="M289.09722,175.41696c0,2.28445 0.44493,3.88138 -1.21212,3.80303c-1.45077,-0.0686 -1.27879,-1.51858 -1.27879,-3.80303c0,-2.28445 -0.17474,-4.13637 1.21213,-4.13637c1.65353,0 1.27878,1.85192 1.27878,4.13637z" fill="#000000" stroke="none" stroke-width="0"/><path d="M281.50717,172.86292c0,0.61616 0.36358,1.04689 -0.99049,1.02575c-1.18551,-0.0185 -1.04497,-0.40959 -1.04497,-1.02575c0,-0.61616 -0.14279,-1.11566 0.99049,-1.11566c1.3512,0 1.04497,0.4995 1.04497,1.11566z" fill="#ffffff" stroke="none" stroke-width="0"/><path d="M288.90716,172.72959c0,0.61616 0.36358,1.04688 -0.99049,1.02575c-1.18551,-0.01851 -1.04497,-0.40959 -1.04497,-1.02575c0,-0.61616 -0.14279,-1.11566 0.9905,-1.11566c1.35119,0 1.04497,0.49949 1.04497,1.11566z" fill="#ffffff" stroke="none" stroke-width="0"/></g></g></svg>